<?xml version="1.0" encoding="utf-8"?>
<!-- Generator: Adobe Illustrator 25.2.3, SVG Export Plug-In . SVG Version: 6.00 Build 0)  -->
<svg version="1.1" id="Flat" xmlns="http://www.w3.org/2000/svg" xmlns:xlink="http://www.w3.org/1999/xlink" x="0px" y="0px"
	 viewBox="0 0 256 256" style="enable-background:new 0 0 256 256;" xml:space="preserve">
<style type="text/css">
	.st0{fill:#FFFFFF;}
</style>
<path class="st0" d="M119.8,214.8c-1.1,4.3-5.4,6.9-9.7,5.8c0,0,0,0,0,0l-30.1-7.5c-2.4-0.6-4.7-1.8-6.6-3.4L50.7,190
	c-3.3-2.9-3.7-8-0.8-11.3s8-3.7,11.3-0.8l22.6,19.6l30.1,7.5C118.2,206.2,120.8,210.5,119.8,214.8
	C119.8,214.8,119.8,214.8,119.8,214.8z M252.4,119.6c-1.3,4.1-4.2,7.5-8.1,9.4L221,140.6l-14.9,17.5c-0.1,0.1-0.1,0.1-0.2,0.2
	c0,0.1-0.1,0.1-0.1,0.2c0,0-0.1,0.1-0.1,0.1l-36.8,36.8c-3,3-7.1,4.7-11.4,4.7c-1.3,0-2.6-0.2-3.8-0.5l-58-14.5
	c-2.2-0.5-4.2-1.5-6-2.9l-54-42.2l-24-12c-7.9-4-11.1-13.6-7.2-21.5c0-0.1,0.1-0.2,0.1-0.2l24.6-47.1c4.1-7.7,13.5-10.8,21.3-6.9
	L73,63.3l48.7-14.2c3.7-1.1,7.6-0.8,11.1,0.8l33,14.9h16.4l23.3-11.6c7.8-3.9,17.3-0.8,21.3,6.9l24.6,47.1
	C253.3,111,253.7,115.5,252.4,119.6z M187.7,153.8l-31.6-23l-8.1,6.1c-14.2,10.6-33.8,10.6-48,0l-5.4-4.1
	c-7.1-5.3-8.5-15.3-3.2-22.4c0.5-0.6,1-1.2,1.5-1.7L132,69.5c0.6-0.6,1.2-1.1,1.8-1.6l-7.7-3.5L77.4,78.7l-27.2,52.2l49.4,38.6
	l58,14.5L187.7,153.8z M206.4,133.1l-27.3-52.2H164l0,0c0,0,0,0,0,0h-20.6L104.2,120l5.4,4.1c8.5,6.4,20.3,6.4,28.8,0l12.8-9.6
	c2.8-2.1,6.7-2.1,9.5-0.1l38,27.7L206.4,133.1z"/>
</svg>
